<?xml version="1.0" encoding="iso-8859-1"?>
<!-- Uploaded to: SVG Repo, www.svgrepo.com, Generator: SVG Repo Mixer Tools -->
<svg height="800px" width="800px" version="1.1" id="Layer_1" xmlns="http://www.w3.org/2000/svg" xmlns:xlink="http://www.w3.org/1999/xlink" 
	 viewBox="0 0 512 512" xml:space="preserve">
<path style="fill:#1BA098;" d="M478.242,413.538h-44.329l31.345-31.345l-11.935-11.935l-31.345,31.345v-44.329h-16.879v44.329
	l-31.345-31.345l-11.935,11.935l31.345,31.345h-44.329v16.879h44.329l-31.345,31.345l11.935,11.935l31.345-31.345v44.329h16.879
	v-44.329l31.345,31.345l11.935-11.935l-31.345-31.345h44.329V413.538z"/>
<path style="fill:#1BA098;" d="M465.234,370.283l4.569-4.569l7.362-7.362c-16.301-16.301-38.806-26.397-63.625-26.397
	c-49.638,0-90.022,40.384-90.022,90.022c0,24.819,10.096,47.325,26.397,63.625l11.93-11.93l-15.821-51.695l22.505-45.011
	l45.011-22.505L465.234,370.283z"/>
<path style="fill:#1BA098;" d="M477.164,358.353l-0.12,0.12c-6.298,6.298-16.106,7.137-23.56,2.258
	c-12.726-8.328-28.192-12.8-44.725-11.743c-36.443,2.329-65.88,31.765-68.21,68.209c-1.058,16.535,3.415,32.001,11.743,44.726
	c4.878,7.454,4.04,17.261-2.258,23.56l-0.12,0.12c17.221,17.221,41.367,27.516,67.851,26.3c46.179-2.122,83.576-39.52,85.7-85.7
	C504.681,399.72,494.385,375.574,477.164,358.353z M357.275,421.978c0-31.073,25.19-56.264,56.264-56.264
	s56.264,25.19,56.264,56.264s-25.19,56.264-56.264,56.264S357.275,453.051,357.275,421.978z"/>
<g>
	<polygon style="fill:#1BA098;" points="301.011,346.022 186.353,346.022 267.428,264.947 255.492,253.011 165.978,342.526 
		76.463,253.011 64.528,264.947 145.603,346.022 30.945,346.022 30.945,362.901 145.603,362.901 64.528,443.976 76.463,455.912 
		165.978,366.397 255.492,455.912 267.428,443.976 186.353,362.901 301.011,362.901 	"/>
	<path style="fill:#1BA098;" d="M165.978,503.56c-82.214,0-149.099-66.885-149.099-149.099s66.885-149.099,149.099-149.099
		s149.099,66.885,149.099,149.099S248.192,503.56,165.978,503.56z M165.978,256c-54.292,0-98.462,44.169-98.462,98.462
		s44.169,98.462,98.462,98.462s98.462-44.169,98.462-98.462S220.27,256,165.978,256z"/>
</g>
<path style="fill:#1BA098;" d="M53.471,352.325c1.116-60.163,50.209-109.256,110.373-110.37c28.022-0.52,53.761,9.207,73.722,25.683
	c4.722,3.897,11.608,3.63,15.937-0.699l17.856-17.856c-27.73-27.73-66.301-44.619-108.731-43.683
	c-79.404,1.752-143.96,66.308-145.712,145.71c-0.936,42.43,15.952,81.002,43.682,108.732l17.856-17.856
	c4.329-4.329,4.596-11.216,0.699-15.937C62.677,406.087,52.951,380.347,53.471,352.325z"/>
<path style="fill:#1BA098;" d="M165.978,512C79.111,512,8.439,441.328,8.439,354.462s70.672-157.538,157.538-157.538
	s157.538,70.672,157.538,157.538S252.845,512,165.978,512z M165.978,230.681c-68.252,0-123.78,55.528-123.78,123.78
	s55.528,123.78,123.78,123.78s123.78-55.528,123.78-123.78S234.23,230.681,165.978,230.681z"/>
<path style="fill:#1BA098;" d="M23.918,353.223c0.657-77.133,63.694-140.166,140.827-140.821
	c34.439-0.293,66.077,11.67,90.814,31.791c6.474,5.265,15.864,4.826,21.764-1.075l0,0c-29.3-29.3-70.055-47.145-114.887-46.154
	c-83.897,1.85-152.107,70.062-153.957,153.958c-0.989,44.831,16.855,85.585,46.155,114.885l0,0c5.901-5.901,6.34-15.29,1.075-21.764
	C35.587,419.303,23.624,387.664,23.918,353.223z"/>
<path style="fill:#1BA098;" d="M149.099,0l-21.38,16.879l21.38,16.879v16.879c0,9.322,7.557,16.879,16.879,16.879
	c9.322,0,16.879-7.557,16.879-16.879V33.758C182.857,15.144,167.713,0,149.099,0z"/>
<path style="fill:#1BA098;" d="M149.099,0h-16.052c-25.58,0-47.751,18.68-51.038,44.048c-1.915,14.785,2.696,29.429,12.48,40.362
	c0.619,0.69,1.256,1.363,1.925,2.034c0.659,0.659,1.349,1.312,2.05,1.939c3.221,2.881,7.24,4.296,11.245,4.296
	c4.636,0,9.255-1.899,12.588-5.629c6.214-6.95,5.617-17.62-1.332-23.833c-0.233-0.209-0.46-0.423-0.666-0.63
	c-0.232-0.231-0.456-0.468-0.665-0.701c-3.401-3.8-4.925-8.961-4.053-14.113c1.389-8.195,8.792-14.015,17.104-14.015h16.412h0.401
	c21.758,0,22.878-32.741,1.142-33.723C150.131,0.011,149.616,0,149.099,0z"/>
<path style="fill:#1BA098;" d="M368.888,190.374c5.132,4.712,8.751,10.615,11.142,17.021c14.299-32.5,22.256-68.396,22.256-106.12
	h-33.758c0,27.824-4.966,54.505-14.034,79.223C359.692,182.999,364.511,186.358,368.888,190.374z"/>
<path style="fill:#A6C1AD;" d="M361.787,156.689c-2.011,8.112-4.45,16.058-7.294,23.809c5.169,2.488,9.964,5.824,14.32,9.811
	c4.099-10.593,7.486-21.538,10.114-32.77h-9.078C367.125,157.538,364.425,157.244,361.787,156.689z"/>
<path style="fill:#1BA098;" d="M361.885,184.803c2.414,1.656,4.73,3.493,6.928,5.506c4.099-10.593,7.486-21.538,10.114-32.77h-8.68
	C367.988,166.847,365.197,175.95,361.885,184.803z"/>
<path style="fill:#1BA098;" d="M165.978,90.022v33.758c127.198,0,230.681,103.484,230.681,230.681v67.516
	c0,9.322,7.557,16.879,16.879,16.879s16.879-7.557,16.879-16.879v-67.516C430.418,208.65,311.79,90.022,165.978,90.022z"/>
<path style="fill:#1BA098;" d="M165.978,106.901v16.879c127.198,0,230.681,103.484,230.681,230.681v67.516
	c0,9.322,7.557,16.879,16.879,16.879v-16.879v-67.516C413.538,217.956,302.484,106.901,165.978,106.901z"/>
<path style="fill:#1BA098;" d="M165.978,106.901v8.44c131.852,0,239.121,107.269,239.121,239.121v82.119
	c2.485,1.439,5.362,2.276,8.44,2.276v-16.879v-67.516C413.538,217.956,302.484,106.901,165.978,106.901z"/>
<path style="fill:#1BA098;" d="M174.418,365.714h-16.879c-4.661,0-8.44-3.779-8.44-8.44V50.637h33.758v306.637
	C182.857,361.936,179.078,365.714,174.418,365.714z"/>
<path style="fill:#1BA098;" d="M149.099,71.695v285.58c0,4.661,3.779,8.44,8.44,8.44h8.44V87.401c0-5.417-3.217-10.357-8.222-12.429
	C154.905,73.792,152.019,72.7,149.099,71.695z"/>
<path style="fill:#1BA098;" d="M157.538,74.884c-2.781-1.146-5.594-2.21-8.44-3.189v285.58c0,4.661,3.779,8.44,8.44,8.44l0,0V74.884
	z"/>
<path style="fill:#1BA098;" d="M174.418,466.989h-16.879V354.462c0-4.661,3.779-8.44,8.44-8.44l0,0c4.661,0,8.44,3.779,8.44,8.44
	V466.989z"/>
<path style="fill:#1BA098;" d="M435.84,95.648c-1.079-6.361-6.644-11.253-13.3-11.253H314.676c-0.075,0-0.151,0-0.225,0.001
	c-6.528,0.108-10.212,5.877-9.564,11.252c0.343,2.846,1.901,5.58,4.897,7.304c16.123,9.272,31.295,20.088,45.277,32.159
	c4.116,3.554,9.349,5.548,14.787,5.548h23.435c23.62,0,42.766-19.151,42.76-42.772C436.044,97.124,435.964,96.379,435.84,95.648z"/>
<path style="fill:#1BA098;" d="M410.504,97.891c-0.214-7.503-6.357-13.476-13.863-13.479l-68.745-0.017
	c-6.692,0-9.397,8.818-3.737,12.388c0.044,0.027,0.088,0.055,0.133,0.082c13.679,8.459,26.78,18.074,39.045,28.663
	c1.845,1.593,4.159,2.47,6.515,2.47h9.931c7.8,0,15.441-2.751,21.142-8.076C407.094,114.16,410.506,106.288,410.504,97.891
	L410.504,97.891z"/>
</svg>