<?xml version="1.0" encoding="utf-8"?>
<!-- Uploaded to: SVG Repo, www.svgrepo.com, Generator: SVG Repo Mixer Tools -->
<svg width="800px" height="800px" viewBox="0 0 1024 1024" class="icon"  version="1.1" xmlns="http://www.w3.org/2000/svg"><path d="M46.741389 520.391764h92.164014l46.08303 46.082007 138.246021 23.041515 46.08303 368.658103H46.741389z" fill="#09423f" /><path d="M691.89358 174.774153m-92.165038 0a92.165038 92.165038 0 1 0 184.330075 0 92.165038 92.165038 0 1 0-184.330075 0Z" fill="#1BA098" /><path d="M966.082903 338.366455c-6.91225-18.433008-25.345257-27.648999-43.778265-23.041515L786.362359 336.062713h-59.906506L562.863551 269.242933l-124.422544-94.46878-59.907531-115.205529c-6.91225-20.736749-29.953765-27.648999-48.386772-20.736749l-4.608508 2.303742c-20.736749 9.215992-29.953765 32.257507-20.73675 50.690514l66.81978 126.726287c2.303742 6.91225 4.608508 11.520758 9.215992 16.129266l101.38103 112.901787L376.229734 499.655015c-6.91225 9.215992-9.215992 18.433008-11.520757 27.648999l-25.345258 142.855552-140.550786 126.726287c-16.129266 16.129266-16.129266 41.474523 0 57.602764s41.474523 16.129266 57.602764 0l142.854529-122.117779 50.690514-96.772521 20.73675 119.814037-64.515014 149.767802c-9.215992 20.736749 0 43.778265 20.736749 52.994256h18.433008c16.129266 0 29.953765-9.215992 36.866015-25.345257l71.427264-156.680052c2.303742-9.217016 4.608508-16.129266 2.303742-25.345257v-188.937559l119.814037-135.942278 110.597021-11.520758c9.215992 0 16.129266 0 23.041515-2.303742 39.169757-6.91225 82.948022-18.433008 135.942278-29.953765 18.435055-4.609532 27.651047-25.346281 20.738798-43.779289z" fill="#1BA098" /><path d="M466.090006 727.762331h87.55653V566.473771H436.136241z" fill="#09423f" /><path d="M406.183499 455.87675l-29.953765 43.778265c-6.91225 9.215992-9.215992 18.433008-11.520757 27.648999l-25.345258 138.247044 73.73203 36.866015 36.866015-69.123522 103.684772-69.123522-147.463037-108.293279z" fill="#09423f" /></svg>