<?xml version="1.0" ?>

<!-- Uploaded to: SVG Repo, www.svgrepo.com, Generator: SVG Repo Mixer Tools -->
<svg width="800px" height="800px" viewBox="0 0 512 512" id="Layer_1" version="1.1" xml:space="preserve" xmlns="http://www.w3.org/2000/svg" xmlns:xlink="http://www.w3.org/1999/xlink">

<style type="text/css">
	.st0{fill:#1BA098;}
	.st1{fill:#1BA098;}
</style>

<g>

<path class="st0" d="M464.3,300.7c-3.8-0.5-7.4,2.1-7.9,5.9l-4.4,30.7l-49.5,49.6c0,0,0,0,0,0l0,0L297.3,281.8V200l84.6-84.6   c8-8,8-21,0-29l0,0c-8-8-21-8-29,0l-33.4,33.4c-17.2,17.2-40.5,26.8-64.8,26.8l0,0c-24.3,0-47.6-9.6-64.8-26.8l-33.4-33.4   c-8-8-21-8-29,0c-8,8-8,21,0,29l87.1,87.1v80.1L109.9,387.3L60,337.3l-4.4-30.7c-0.5-3.8-4.1-6.5-7.9-5.9c-3.8,0.5-6.5,4.1-5.9,7.9   l4.7,33c0.2,1.5,0.9,2.9,2,4l128,128c1.4,1.4,3.2,2,5,2c1.8,0,3.6-0.7,5-2c2.7-2.7,2.7-7.2,0-9.9l-47.4-47.4l105.9-105.9   c6.4-6.4,16.8-6.4,23.2,0l105.5,105.5v0c0,0,0,0,0,0l-47.8,47.8c-2.7,2.7-2.7,7.2,0,9.9c1.4,1.4,3.2,2.1,5,2.1c1.8,0,3.6-0.7,4.9-2   l45.9-45.9c0.8-0.3,1.6-0.9,2.3-1.5l29-29c0.7-0.7,1.2-1.5,1.5-2.3l49.3-49.3c1.1-1.1,1.8-2.5,2-4l4.7-33   C470.8,304.8,468.2,301.2,464.3,300.7z"/>

<circle class="st1" cx="256" cy="80.7" r="37.3"/>

</g>

</svg>